{"title":"The Back-Up Plan*2010*[BluRay][720p][ENG, POL]","uid":5894690,"size":4983096247,"categoryP":"video","categoryS":"hd___movies","magnet":"?xt=urn:btih:1c4c268d65ce89e88a60689b97d113bd978d78e8&amp;dn=The+Back-Up+Plan%2A2010%2A%5BBluRay%5D%5B720p%5D%5BENG%2C+POL%5D&amp;tr=udp%3A%2F%2Ftracker.openbittorrent.com%3A80&amp;tr=udp%3A%2F%2Fopen.demonii.com%3A1337&amp;tr=udp%3A%2F%2Ftracker.coppersurfer.tk%3A6969&amp;tr=udp%3A%2F%2Fexodus.desync.com%3A6969","seeders":0,"leechers":1,"uploader":"albedo040","files":1,"time":1287399986,"description":"The Back-Up Plan*2010*[BluRay][720p][ENG, POL]\n\nGeneral information:\nCountry: USA\nRelease Date: 23 April 2010\nGenre: Comedy, Romance\nDirector: Alan Poul\nScreenplay: Kate Angelo\nOriginal Music by Stephen Trask\nCinematography by Xavier Perez Grobet\nDuration: 1h 44mn\nLanguage: English, Polish\nSubtitles: English, Polish\nRating: 6.5/10 - 1016 votes\n\nCast:\nJennifer Lopez ...  Zoe \nAlex O'Loughlin ...  Stan \nMichaela Watkins ...  Mona \nEric Christian Olsen ...  Clive \nAnthony Anderson ...  Playground Dad \nNoureen DeWulf ...  Daphne \nMelissa McCarthy ...  Carol \nTom Bosley ...  Arthur \nMaribeth Monroe ...  Lori \nDanneel Harris ...  Olivia \nRobert Klein ...  Dr. Scott Harris \nLinda Lavin ...  Nana \nCarlease Burke ...  Tabitha \nAmy Block ...  Sara \nJennifer Elise Cox ...  Baby Store Sales Clerk \n\nPlot:\nA romantic comedy centered on a woman who conceives twins through artificial insemination, only to meet the man of her dreams on the very same day.\n\nSpecifications:\nGeneral\nFormat                           : Matroska\nOverall bit rate                 : 6 374 Kbps\n\nVideo\nFormat                           : AVC\nFormat/Info                      : Advanced Video Codec\nFormat profile                   : &lt;a class=&quot;__cf_email__&quot; href=&quot;/cdn-cgi/l/email-protection&quot; data-cfemail=&quot;de96b7b9b69e92eaf0ef&quot;&gt;[email&amp;#160;protected]&lt;/a&gt;&lt;script cf-hash='f9e31' type=&quot;text/javascript&quot;&gt;\n/* &lt;![CDATA[ */!function(){try{var t=&quot;currentScript&quot;in document?document.currentScript:function(){for(var t=document.getElementsByTagName(&quot;script&quot;),e=t.length;e--;)if(t[e].getAttribute(&quot;cf-hash&quot;))return t[e]}();if(t&amp;&amp;t.previousSibling){var e,r,n,i,c=t.previousSibling,a=c.getAttribute(&quot;data-cfemail&quot;);if(a){for(e=&quot;&quot;,r=parseInt(a.substr(0,2),16),n=2;a.length-n;n+=2)i=parseInt(a.substr(n,2),16)^r,e+=String.fromCharCode(i);e=document.createTextNode(e),c.parentNode.replaceChild(e,c)}}}catch(u){}}();/* ]]&gt; */&lt;/script&gt;\nFormat settings, CABAC           : Yes\nFormat settings, ReFrames        : 12 frames\nMuxing mode                      : Container profile=&lt;a class=&quot;__cf_email__&quot; href=&quot;/cdn-cgi/l/email-protection&quot; data-cfemail=&quot;71241f1a1f1e061f31455f40&quot;&gt;[email&amp;#160;protected]&lt;/a&gt;&lt;script cf-hash='f9e31' type=&quot;text/javascript&quot;&gt;\n/* &lt;![CDATA[ */!function(){try{var t=&quot;currentScript&quot;in document?document.currentScript:function(){for(var t=document.getElementsByTagName(&quot;script&quot;),e=t.length;e--;)if(t[e].getAttribute(&quot;cf-hash&quot;))return t[e]}();if(t&amp;&amp;t.previousSibling){var e,r,n,i,c=t.previousSibling,a=c.getAttribute(&quot;data-cfemail&quot;);if(a){for(e=&quot;&quot;,r=parseInt(a.substr(0,2),16),n=2;a.length-n;n+=2)i=parseInt(a.substr(n,2),16)^r,e+=String.fromCharCode(i);e=document.createTextNode(e),c.parentNode.replaceChild(e,c)}}}catch(u){}}();/* ]]&gt; */&lt;/script&gt;\nCodec ID                         : V_MPEG4/ISO/AVC\nBit rate                         : 5 363 Kbps\nWidth                            : 1 280 pixels\nHeight                           : 544 pixels\nDisplay aspect ratio             : 2.35:1\nFrame rate                       : 23.976 fps\n\nAudio 1\nFormat                           : AC-3\nFormat/Info                      : Audio Coding 3\nMode extension                   : CM (complete main)\nCodec ID                         : A_AC3\nBit rate mode                    : Constant\nBit rate                         : 640 Kbps\nChannel(s)                       : 6 channels\nChannel positions                : Front: L C R, Side: L R, LFE\nSampling rate                    : 48.0 KHz\nStream size                      : 477 MiB (10%)\nTitle                            : English\n\nAudio 2\nFormat                           : AC-3\nFormat/Info                      : Audio Coding 3\nMode extension                   : CM (complete main)\nCodec ID                         : A_AC3\nBit rate mode                    : Constant\nBit rate                         : 384 Kbps\nChannel(s)                       : 6 channels\nChannel positions                : Front: L C R, Side: L R, LFE\nSampling rate                    : 48.0 KHz\nStream size                      : 286 MiB (6%)\nTitle                            : Polish\nLanguage                         : Polish\n\nText \nFormat                           : UTF-8\nCodec ID                         : S_TEXT/UTF8\nCodec ID/Info                    : UTF-8 Plain Text\n","torrent":{"xt":"urn:btih:1c4c268d65ce89e88a60689b97d113bd978d78e8","amp;dn":"The+Back-Up+Plan%2A2010%2A%5BBluRay%5D%5B720p%5D%5BENG%2C+POL%5D","amp;tr":["udp%3A%2F%2Ftracker.openbittorrent.com%3A80","udp%3A%2F%2Fopen.demonii.com%3A1337","udp%3A%2F%2Ftracker.coppersurfer.tk%3A6969","udp%3A%2F%2Fexodus.desync.com%3A6969"],"infoHash":"1c4c268d65ce89e88a60689b97d113bd978d78e8","infoHashBuffer":{"type":"Buffer","data":[28,76,38,141,101,206,137,232,138,96,104,155,151,209,19,189,151,141,120,232]},"announce":[],"urlList":[]}}